<svg version="1.1" id="Layer_1" xmlns="http://www.w3.org/2000/svg" xmlns:xlink="http://www.w3.org/1999/xlink" x="0px" y="0px"
	 width="100%" viewBox="0 0 223 58" enable-background="new 0 0 223 58" xml:space="preserve">
<path fill="#8C4613" opacity="1.000000" stroke="none" 
	d="
M167.000000,59.000000 
	C111.333344,59.000000 56.166679,59.000000 1.000015,59.000000 
	C1.000010,39.666676 1.000010,20.333351 1.000005,1.000020 
	C75.333321,1.000013 149.666641,1.000013 223.999969,1.000007 
	C223.999969,20.333313 223.999969,39.666626 223.999985,58.999969 
	C205.166672,59.000000 186.333328,59.000000 167.000000,59.000000 
M191.954636,28.484161 
	C191.704163,28.121258 191.453705,27.758354 190.860321,26.660023 
	C187.685822,24.057329 184.032852,23.879845 181.575760,26.876013 
	C180.103790,28.670902 179.629105,32.191719 180.218460,34.560558 
	C181.151413,38.310562 184.879684,38.378090 188.076767,37.902157 
	C189.301910,37.719780 190.360382,36.417625 191.888931,35.350613 
	C188.472641,34.555607 186.265274,34.041931 183.290924,33.349773 
	C187.116394,31.993078 189.625275,31.103315 192.835159,30.079378 
	C194.911545,31.431181 196.987930,32.782986 200.337326,34.963566 
	C197.233734,34.701408 195.574417,34.561245 193.915100,34.421085 
	C193.625153,34.748188 193.335190,35.075291 193.045227,35.402393 
	C194.065903,36.274113 195.286407,38.032673 196.070801,37.855907 
	C198.718811,37.259171 201.211975,35.975388 203.764359,34.954300 
	C202.249344,32.696369 200.734314,30.438440 199.214142,28.172821 
	C200.139282,28.270159 201.489151,28.412182 202.839020,28.554205 
	C203.095001,28.117750 203.350998,27.681295 203.606995,27.244843 
	C202.507690,26.486134 201.126495,24.869524 200.359329,25.121607 
	C197.488449,26.064980 194.818451,27.619726 192.024277,28.973888 
	C192.024277,28.973888 192.064819,28.953358 191.954636,28.484161 
M122.976990,34.270538 
	C122.976990,31.329439 122.976990,28.388338 122.976990,25.510633 
	C112.831078,24.401823 109.900002,25.350794 109.293472,30.193810 
	C109.063553,32.029659 109.244171,34.811626 110.387230,35.727268 
	C112.394737,37.335361 115.287743,37.838009 117.809875,38.803658 
	C117.912262,39.104408 118.014641,39.405163 118.117027,39.705917 
	C115.681343,40.107433 113.245659,40.508949 109.533821,41.120838 
	C110.897911,42.283039 111.814125,43.721718 112.948051,43.920887 
	C119.382347,45.051037 122.595749,42.138340 122.976990,34.270538 
M44.909630,20.649513 
	C44.775684,22.604694 44.641743,24.559877 44.492886,26.732689 
	C42.163399,26.732689 40.081005,26.732689 37.849552,26.732689 
	C37.664177,24.448441 37.494072,22.352348 37.326481,20.287231 
	C35.799259,20.287231 34.564644,20.287231 33.342598,20.287231 
	C33.342598,26.339518 33.342598,32.088261 33.342598,38.096096 
	C34.899433,37.933048 36.127144,37.804466 37.421402,37.668919 
	C37.563591,34.997627 37.684795,32.720570 37.814270,30.288151 
	C40.131992,30.288151 42.206612,30.288151 44.493111,30.288151 
	C44.671627,32.931782 44.833992,35.336201 44.996357,37.740623 
	C45.458336,38.005074 45.920319,38.269520 46.382301,38.533970 
	C47.254925,37.410454 48.791698,36.336605 48.880104,35.154438 
	C49.189632,31.015545 48.865696,26.833479 49.046120,22.679264 
	C49.168388,19.864037 47.663960,19.753365 44.909630,20.649513 
M149.686951,34.138145 
	C148.863754,34.116478 148.040543,34.094814 147.217346,34.073147 
	C147.751297,35.295723 147.999115,37.231133 148.881592,37.585346 
	C150.481445,38.227497 152.668823,38.478516 154.227982,37.885670 
	C156.309998,37.094009 159.172943,35.614048 159.574005,33.924812 
	C159.965057,32.277737 157.970016,29.731979 156.474518,28.075539 
	C155.304367,26.779472 153.296295,26.239899 151.660538,25.364201 
	C151.768829,24.796257 151.877106,24.228312 151.985397,23.660368 
	C154.234741,23.535542 156.484085,23.410717 158.742798,23.285372 
	C158.717468,19.952400 157.602325,19.002531 152.637222,20.165699 
	C150.610474,20.640499 148.085922,22.646795 147.518387,24.489359 
	C147.095688,25.861670 149.197342,28.339344 150.656799,29.862951 
	C151.891541,31.151951 153.817947,31.778391 155.438248,32.698055 
	C155.337326,33.206230 155.236420,33.714405 155.135498,34.222584 
	C153.547028,34.301979 151.958572,34.381374 149.686951,34.138145 
M105.304520,26.123325 
	C99.654640,23.840509 97.008827,24.547634 96.368668,28.657431 
	C98.099701,28.504734 99.826981,28.352365 101.554253,28.199999 
	C100.625290,29.471220 99.210777,29.395084 98.564728,30.062639 
	C97.150742,31.523703 96.126640,33.362091 94.943306,35.046371 
	C96.603409,36.026527 98.159210,37.448452 99.950859,37.871498 
	C102.042183,38.365307 104.339470,37.986843 107.366875,37.986843 
	C106.810410,33.823952 106.337852,30.288832 105.304520,26.123325 
M125.472733,32.287388 
	C126.063873,37.238621 129.364441,38.508774 133.631134,37.924961 
	C134.983597,37.739910 136.190750,36.492985 138.028610,35.394886 
	C134.439072,34.555363 132.253510,34.044201 130.067947,33.533039 
	C130.184219,32.961147 130.300507,32.389256 130.416779,31.817364 
	C132.975555,31.817364 135.534317,31.817364 138.127960,31.817364 
	C138.290695,27.721380 137.053345,25.227976 132.996506,24.980530 
	C128.343094,24.696688 125.863075,26.918274 125.472733,32.287388 
M61.037106,34.840927 
	C59.613003,34.381119 58.188900,33.921314 56.764793,33.461510 
	C56.886600,33.048302 57.008408,32.635098 57.130211,32.221893 
	C59.691681,32.088661 62.253155,31.955429 64.814629,31.822195 
	C65.152557,31.424088 65.490486,31.025980 65.828415,30.627871 
	C64.168449,28.774078 62.838047,26.069866 60.770222,25.268501 
	C57.769760,24.105703 53.943153,24.853010 53.042202,28.504608 
	C52.431862,30.978340 52.824261,34.971138 54.434422,36.379368 
	C56.202358,37.925598 59.879074,37.368488 62.733894,37.482754 
	C63.054920,37.495598 63.439594,35.918095 63.794758,35.078083 
	C63.122322,34.921974 62.449886,34.765869 61.037106,34.840927 
M84.172798,25.848454 
	C84.856857,28.157993 85.911346,30.430145 86.148994,32.784740 
	C86.667442,37.921402 88.434265,39.058510 94.251007,36.698990 
	C89.596085,33.493752 89.132973,30.011463 93.623306,26.682352 
	C92.306458,24.800018 91.060493,23.018997 89.323822,20.536551 
	C87.734276,22.106936 86.181213,23.641270 84.172798,25.848454 
M172.434235,37.122421 
	C174.230423,37.460526 176.026596,37.798626 177.961334,38.162811 
	C177.961334,36.873760 178.175934,36.169945 177.928314,35.914875 
	C175.299881,33.207432 173.684097,30.580378 177.612762,27.565357 
	C177.960510,27.298473 177.686478,25.788279 177.293915,25.081913 
	C176.525436,23.699158 175.469406,22.476202 173.897888,20.314209 
	C172.193100,22.568682 169.433395,24.587099 169.344818,26.716619 
	C169.211090,29.931715 170.941010,33.224323 172.434235,37.122421 
M71.643600,34.395050 
	C70.028610,30.079960 74.851837,28.505816 76.427124,25.295616 
	C72.834053,25.295616 70.114799,25.295616 67.426376,25.295616 
	C67.426376,29.701460 67.426376,33.762100 67.426376,37.822742 
	C67.860550,38.097443 68.294731,38.372147 68.728905,38.646847 
	C69.699066,37.514072 70.669220,36.381298 71.643600,34.395050 
M81.986649,28.691099 
	C82.267761,25.473488 81.340332,23.969208 78.012054,25.651655 
	C77.539040,37.817234 77.539040,37.817234 81.986809,37.472549 
	C81.986809,34.878872 81.986809,32.252205 81.986649,28.691099 
M162.760269,33.404617 
	C162.914185,37.828423 162.914185,37.828423 166.588867,37.470310 
	C167.813324,26.063782 167.525711,25.072424 162.760178,25.589172 
	C162.760178,27.846399 162.760178,30.148006 162.760269,33.404617 
z"/>
<path fill="#F2F3EE" opacity="1.000000" stroke="none" 
	d="
M122.976799,34.723770 
	C122.595749,42.138340 119.382347,45.051037 112.948051,43.920887 
	C111.814125,43.721718 110.897911,42.283039 109.533821,41.120838 
	C113.245659,40.508949 115.681343,40.107433 118.117027,39.705917 
	C118.014641,39.405163 117.912262,39.104408 117.809875,38.803658 
	C115.287743,37.838009 112.394737,37.335361 110.387230,35.727268 
	C109.244171,34.811626 109.063553,32.029659 109.293472,30.193810 
	C109.900002,25.350794 112.831078,24.401823 122.976990,25.510633 
	C122.976990,28.388338 122.976990,31.329439 122.976799,34.723770 
M113.809235,33.118317 
	C114.960228,33.560398 116.111221,34.002480 117.262215,34.444561 
	C117.679611,32.985069 118.410606,31.517675 118.374115,30.069626 
	C118.357384,29.405733 116.832344,28.779852 115.991310,28.136736 
	C115.199554,29.534767 114.407791,30.932800 113.809235,33.118317 
z"/>
<path fill="#F6F7F0" opacity="1.000000" stroke="none" 
	d="
M45.265808,20.362343 
	C47.663960,19.753365 49.168388,19.864037 49.046120,22.679264 
	C48.865696,26.833479 49.189632,31.015545 48.880104,35.154438 
	C48.791698,36.336605 47.254925,37.410454 46.382301,38.533970 
	C45.920319,38.269520 45.458336,38.005074 44.996357,37.740623 
	C44.833992,35.336201 44.671627,32.931782 44.493111,30.288151 
	C42.206612,30.288151 40.131992,30.288151 37.814270,30.288151 
	C37.684795,32.720570 37.563591,34.997627 37.421402,37.668919 
	C36.127144,37.804466 34.899433,37.933048 33.342598,38.096096 
	C33.342598,32.088261 33.342598,26.339518 33.342598,20.287231 
	C34.564644,20.287231 35.799259,20.287231 37.326481,20.287231 
	C37.494072,22.352348 37.664177,24.448441 37.849552,26.732689 
	C40.081005,26.732689 42.163399,26.732689 44.492886,26.732689 
	C44.641743,24.559877 44.775684,22.604694 45.265808,20.362343 
z"/>
<path fill="#F2F2F0" opacity="1.000000" stroke="none" 
	d="
M150.028534,34.299458 
	C151.958572,34.381374 153.547028,34.301979 155.135498,34.222584 
	C155.236420,33.714405 155.337326,33.206230 155.438248,32.698055 
	C153.817947,31.778391 151.891541,31.151951 150.656799,29.862951 
	C149.197342,28.339344 147.095688,25.861670 147.518387,24.489359 
	C148.085922,22.646795 150.610474,20.640499 152.637222,20.165699 
	C157.602325,19.002531 158.717468,19.952400 158.742798,23.285372 
	C156.484085,23.410717 154.234741,23.535542 151.985397,23.660368 
	C151.877106,24.228312 151.768829,24.796257 151.660538,25.364201 
	C153.296295,26.239899 155.304367,26.779472 156.474518,28.075539 
	C157.970016,29.731979 159.965057,32.277737 159.574005,33.924812 
	C159.172943,35.614048 156.309998,37.094009 154.227982,37.885670 
	C152.668823,38.478516 150.481445,38.227497 148.881592,37.585346 
	C147.999115,37.231133 147.751297,35.295723 147.217346,34.073147 
	C148.040543,34.094814 148.863754,34.116478 150.028534,34.299458 
z"/>
<path fill="#F4F3EF" opacity="1.000000" stroke="none" 
	d="
M105.584915,26.438519 
	C106.337852,30.288832 106.810410,33.823952 107.366875,37.986843 
	C104.339470,37.986843 102.042183,38.365307 99.950859,37.871498 
	C98.159210,37.448452 96.603409,36.026527 94.943306,35.046371 
	C96.126640,33.362091 97.150742,31.523703 98.564728,30.062639 
	C99.210777,29.395084 100.625290,29.471220 101.554253,28.199999 
	C99.826981,28.352365 98.099701,28.504734 96.368668,28.657431 
	C97.008827,24.547634 99.654640,23.840509 105.584915,26.438519 
z"/>
<path fill="#F4F5F3" opacity="1.000000" stroke="none" 
	d="
M125.465485,31.907539 
	C125.863075,26.918274 128.343094,24.696688 132.996506,24.980530 
	C137.053345,25.227976 138.290695,27.721380 138.127960,31.817364 
	C135.534317,31.817364 132.975555,31.817364 130.416779,31.817364 
	C130.300507,32.389256 130.184219,32.961147 130.067947,33.533039 
	C132.253510,34.044201 134.439072,34.555363 138.028610,35.394886 
	C136.190750,36.492985 134.983597,37.739910 133.631134,37.924961 
	C129.364441,38.508774 126.063873,37.238621 125.465485,31.907539 
z"/>
<path fill="#F4F4F2" opacity="1.000000" stroke="none" 
	d="
M61.407280,34.725342 
	C62.449886,34.765869 63.122322,34.921974 63.794754,35.078083 
	C63.439594,35.918095 63.054920,37.495598 62.733894,37.482754 
	C59.879074,37.368488 56.202358,37.925598 54.434422,36.379368 
	C52.824261,34.971138 52.431862,30.978340 53.042202,28.504608 
	C53.943153,24.853010 57.769760,24.105703 60.770222,25.268501 
	C62.838047,26.069866 64.168449,28.774078 65.828415,30.627871 
	C65.490486,31.025980 65.152557,31.424088 64.814629,31.822195 
	C62.253155,31.955429 59.691681,32.088661 57.130211,32.221893 
	C57.008408,32.635098 56.886600,33.048302 56.764793,33.461510 
	C58.188900,33.921314 59.613003,34.381119 61.407280,34.725342 
z"/>
<path fill="#F4F5F3" opacity="1.000000" stroke="none" 
	d="
M192.134140,30.213551 
	C189.625275,31.103315 187.116394,31.993078 183.290924,33.349773 
	C186.265274,34.041931 188.472641,34.555607 191.888931,35.350613 
	C190.360382,36.417625 189.301910,37.719780 188.076767,37.902157 
	C184.879684,38.378090 181.151413,38.310562 180.218460,34.560558 
	C179.629105,32.191719 180.103790,28.670902 181.575760,26.876013 
	C184.032852,23.879845 187.685822,24.057329 191.033661,27.255245 
	C191.492935,28.218100 191.778870,28.585732 192.064819,28.953362 
	C192.064819,28.953358 192.024277,28.973888 192.058167,29.276821 
	C192.106064,29.791018 192.120102,30.002283 192.134140,30.213551 
z"/>
<path fill="#F2F1EE" opacity="1.000000" stroke="none" 
	d="
M192.484650,30.146465 
	C192.120102,30.002283 192.106064,29.791018 192.082581,29.262489 
	C194.818451,27.619726 197.488449,26.064980 200.359329,25.121607 
	C201.126495,24.869524 202.507690,26.486134 203.606995,27.244843 
	C203.350998,27.681295 203.095001,28.117750 202.839020,28.554205 
	C201.489151,28.412182 200.139282,28.270159 199.214142,28.172821 
	C200.734314,30.438440 202.249344,32.696369 203.764359,34.954300 
	C201.211975,35.975388 198.718811,37.259171 196.070801,37.855907 
	C195.286407,38.032673 194.065903,36.274113 193.045227,35.402393 
	C193.335190,35.075291 193.625153,34.748188 193.915100,34.421085 
	C195.574417,34.561245 197.233734,34.701408 200.337326,34.963566 
	C196.987930,32.782986 194.911545,31.431181 192.484650,30.146465 
z"/>
<path fill="#ECECE5" opacity="1.000000" stroke="none" 
	d="
M84.400482,25.512028 
	C86.181213,23.641270 87.734276,22.106936 89.323822,20.536551 
	C91.060493,23.018997 92.306458,24.800018 93.623306,26.682352 
	C89.132973,30.011463 89.596085,33.493752 94.251007,36.698990 
	C88.434265,39.058510 86.667442,37.921402 86.148994,32.784740 
	C85.911346,30.430145 84.856857,28.157993 84.400482,25.512028 
z"/>
<path fill="#F1EFEB" opacity="1.000000" stroke="none" 
	d="
M172.156555,36.803204 
	C170.941010,33.224323 169.211090,29.931715 169.344818,26.716619 
	C169.433395,24.587099 172.193100,22.568682 173.897888,20.314209 
	C175.469406,22.476202 176.525436,23.699158 177.293915,25.081913 
	C177.686478,25.788279 177.960510,27.298473 177.612762,27.565357 
	C173.684097,30.580378 175.299881,33.207432 177.928314,35.914875 
	C178.175934,36.169945 177.961334,36.873760 177.961334,38.162811 
	C176.026596,37.798626 174.230423,37.460526 172.156555,36.803204 
z"/>
<path fill="#EFEDE5" opacity="1.000000" stroke="none" 
	d="
M71.641487,34.821785 
	C70.669220,36.381298 69.699066,37.514072 68.728905,38.646847 
	C68.294731,38.372147 67.860550,38.097443 67.426376,37.822742 
	C67.426376,33.762100 67.426376,29.701460 67.426376,25.295616 
	C70.114799,25.295616 72.834053,25.295616 76.427124,25.295616 
	C74.851837,28.505816 70.028610,30.079960 71.641487,34.821785 
z"/>
<path fill="#F4FBF9" opacity="1.000000" stroke="none" 
	d="
M81.986725,29.158318 
	C81.986809,32.252205 81.986809,34.878872 81.986809,37.472549 
	C77.539040,37.817234 77.539040,37.817234 78.012054,25.651655 
	C81.340332,23.969208 82.267761,25.473488 81.986725,29.158318 
z"/>
<path fill="#F8FFF3" opacity="1.000000" stroke="none" 
	d="
M162.760223,32.927116 
	C162.760178,30.148006 162.760178,27.846399 162.760178,25.589172 
	C167.525711,25.072424 167.813324,26.063782 166.588867,37.470310 
	C162.914185,37.828423 162.914185,37.828423 162.760223,32.927116 
z"/>
<path fill="#F2F1EE" opacity="1.000000" stroke="none" 
	d="
M192.009720,28.718761 
	C191.778870,28.585732 191.492935,28.218100 191.205124,27.622959 
	C191.453705,27.758354 191.704163,28.121258 192.009720,28.718761 
z"/>
<path fill="#924D29" opacity="1.000000" stroke="none" 
	d="
M113.712631,32.724571 
	C114.407791,30.932800 115.199554,29.534767 115.991310,28.136734 
	C116.832344,28.779852 118.357384,29.405733 118.374115,30.069626 
	C118.410606,31.517675 117.679611,32.985069 117.262215,34.444561 
	C116.111221,34.002480 114.960228,33.560398 113.712631,32.724571 
z"/>
</svg>