<svg version="1.1" id="Layer_1" xmlns="http://www.w3.org/2000/svg" xmlns:xlink="http://www.w3.org/1999/xlink" x="0px" y="0px"
	 width="100%" viewBox="0 0 336 62" enable-background="new 0 0 336 62" xml:space="preserve">
<path fill="#8D4816" opacity="1.000000" stroke="none" 
	d="
M235.000000,63.000000 
	C156.666687,63.000000 78.833359,63.000000 1.000031,63.000000 
	C1.000021,42.333351 1.000021,21.666702 1.000010,1.000040 
	C112.999962,1.000026 224.999924,1.000026 336.999908,1.000013 
	C336.999939,21.666624 336.999939,42.333248 336.999969,62.999939 
	C303.166656,63.000000 269.333344,63.000000 235.000000,63.000000 
M285.577362,17.955564 
	C285.760010,17.957399 285.942688,17.959234 286.067230,18.901657 
	C286.067230,27.837523 286.067230,36.773388 286.067230,45.607109 
	C289.799408,45.607109 292.853607,45.607109 295.796570,45.607109 
	C295.796570,31.613216 295.796570,18.017281 295.796570,3.996300 
	C292.731720,3.996300 289.895386,4.299331 287.151398,3.925057 
	C283.067474,3.368009 281.309387,5.010873 280.156830,8.861997 
	C277.848541,16.575140 274.990753,24.123846 271.956787,32.907063 
	C268.689819,23.501423 265.942596,15.356204 262.975464,7.291913 
	C262.503876,6.010149 261.120361,4.257048 260.025574,4.155587 
	C255.977493,3.780430 251.873718,4.006350 247.854446,4.006350 
	C247.854446,18.351122 247.854446,31.952139 247.854446,45.669880 
	C250.830780,45.669880 253.539871,45.669880 256.582306,45.669880 
	C256.582306,36.700493 256.582306,28.061596 257.042999,19.405117 
	C257.300140,19.220757 257.586700,19.120390 258.078857,19.823917 
	C261.183044,28.540396 264.287201,37.256878 267.616699,46.606052 
	C270.691895,44.599236 274.927551,48.607998 276.648804,43.131908 
	C279.289520,34.730522 282.229675,26.423246 285.577362,17.955564 
M207.082275,20.645088 
	C206.991943,19.204849 206.901627,17.764608 206.794540,16.057032 
	C203.845215,16.057032 201.210876,16.036459 198.577103,16.065821 
	C197.284866,16.080225 195.827728,16.612787 194.728622,16.184151 
	C186.919174,13.138555 179.805206,16.006231 176.780029,23.603596 
	C173.132095,32.764893 176.191803,43.383469 183.346329,46.226879 
	C184.401993,46.646435 185.636429,47.101639 186.695328,46.938374 
	C190.138870,46.407459 193.539322,45.597145 197.999466,44.679852 
	C196.554108,47.296780 195.748993,50.385460 193.754608,52.044338 
	C188.768951,56.191280 183.464966,53.342278 177.672974,51.792656 
	C178.267059,54.839867 178.893692,59.337986 180.687988,59.865669 
	C192.092606,63.219624 207.238724,60.428169 207.090652,42.587643 
	C207.032639,35.598614 207.081955,28.608694 207.082275,20.645088 
M29.793934,35.649773 
	C29.793934,38.934311 29.793934,42.218853 29.793934,45.709232 
	C33.288185,45.709232 36.333466,45.709232 39.459824,45.709232 
	C39.459824,31.700960 39.459824,17.992029 39.459824,4.379452 
	C36.063042,4.379452 33.008743,4.379452 29.598888,4.379452 
	C29.598888,10.034271 29.598888,15.305465 29.598888,20.660599 
	C23.850359,20.660599 18.471338,20.660599 12.605810,20.660599 
	C12.605810,14.938859 12.605810,9.542967 12.605810,4.280927 
	C9.173610,4.280927 6.240404,4.280927 3.241006,4.280927 
	C3.241006,18.269873 3.241006,31.969666 3.241006,45.616714 
	C6.612967,45.616714 9.650661,45.616714 13.151971,45.616714 
	C13.151971,40.000156 13.151971,34.768661 13.151971,29.532240 
	C18.872854,29.532240 24.110577,29.532240 29.793901,29.532240 
	C29.793901,31.452810 29.793901,33.078587 29.793934,35.649773 
M329.156403,38.330437 
	C327.237976,35.651672 325.319519,32.972904 323.300903,30.154222 
	C326.724457,25.535662 330.007324,21.106857 333.187469,16.816637 
	C321.926117,12.181696 319.100677,21.313221 313.851746,27.359829 
	C313.851746,19.007444 313.851746,10.655062 313.851746,2.240258 
	C310.381653,2.240258 307.467102,2.240258 304.369446,2.240258 
	C304.369446,16.859800 304.369446,31.227179 304.369446,45.613773 
	C307.666870,45.613773 310.691254,45.613773 314.113342,45.613773 
	C314.113342,41.338203 314.113342,37.452232 314.113342,32.120743 
	C317.199646,36.903946 318.814728,41.386337 322.000641,43.763485 
	C324.929047,45.948479 329.548706,45.866798 333.423279,46.783707 
	C333.634155,46.282314 333.845032,45.780926 334.055939,45.279533 
	C332.568268,43.156658 331.080627,41.033779 329.156403,38.330437 
M58.116402,46.924446 
	C60.777306,46.928997 63.457512,47.141800 66.095329,46.897289 
	C72.797424,46.276043 73.507248,45.220558 72.384285,38.409309 
	C61.855946,41.759575 57.398888,40.562340 56.606899,33.879814 
	C59.619812,33.879814 62.602551,33.879818 65.585289,33.879818 
	C68.696526,33.879818 71.807755,33.879814 74.816330,33.879814 
	C76.605865,22.928244 72.010284,15.574368 63.425102,15.003662 
	C54.551575,14.413788 48.381844,18.883974 46.639229,27.165615 
	C44.594303,36.883957 48.171192,43.484726 58.116402,46.924446 
M238.918167,19.678680 
	C234.633255,14.409671 228.944595,13.998960 223.080048,15.699709 
	C217.079407,17.439924 213.885406,21.979342 213.003235,28.091560 
	C211.047882,41.639114 219.593445,49.365643 233.651138,46.809826 
	C239.645309,45.720028 240.199020,44.806942 238.702316,38.480461 
	C228.652161,41.785671 224.364792,40.678406 222.921326,33.809601 
	C229.222137,33.809601 235.421112,33.809601 242.965302,33.809601 
	C241.611435,28.684908 240.500839,24.481075 238.918167,19.678680 
M151.971512,21.952196 
	C155.625580,21.719212 159.839218,20.298641 161.408569,26.120705 
	C156.979691,26.916164 153.160202,27.279554 149.540054,28.329914 
	C144.434219,29.811333 142.068756,34.271591 142.971466,39.694748 
	C143.775391,44.524410 147.192230,47.348118 152.636490,46.901806 
	C155.445312,46.671547 158.163895,45.340694 160.923248,44.507133 
	C160.844406,44.840363 160.765564,45.173592 160.686722,45.506821 
	C163.787704,45.709866 166.888702,45.912910 170.251724,46.133114 
	C170.251724,38.655289 170.544922,31.839281 170.161682,25.061522 
	C169.838013,19.337635 166.142090,15.616930 160.736267,15.148889 
	C157.634537,14.880339 154.395279,15.050330 151.339249,15.645659 
	C145.146561,16.852018 145.096863,17.163084 146.426056,23.722551 
	C147.999786,23.166668 149.558136,22.616222 151.971512,21.952196 
M133.403198,33.095661 
	C133.403198,29.820732 133.403198,26.545805 133.403198,23.259821 
	C135.911591,23.022491 137.836334,22.840385 139.704208,22.663658 
	C139.704208,20.280827 139.704208,18.238106 139.704208,16.172747 
	C137.544250,16.036819 135.745621,15.923633 133.734756,15.797090 
	C133.490555,12.846807 133.255890,10.011726 132.989578,6.794453 
	C128.168228,8.702675 121.568680,7.574574 123.539581,15.570853 
	C121.717346,15.910140 120.329399,16.168566 119.056259,16.405613 
	C119.056259,18.671848 119.056259,20.607119 119.056259,22.609089 
	C120.654907,22.892294 122.028275,23.135588 123.597267,23.413538 
	C123.597267,26.417727 123.540466,29.062590 123.612732,31.703920 
	C123.689804,34.520695 123.583740,37.391376 124.098839,40.136990 
	C125.138084,45.676449 130.178497,48.202374 137.037796,46.921371 
	C142.255234,45.946987 139.371582,42.151096 139.923401,39.421799 
	C134.205734,39.920223 133.920731,39.669048 133.403198,33.095661 
M100.624405,17.718174 
	C100.820755,13.974196 97.582108,14.352059 96.232162,15.211093 
	C92.735870,17.435953 89.321198,15.874145 85.889877,15.971705 
	C84.151283,16.021137 82.410126,15.980349 80.608032,15.980349 
	C80.608032,26.324381 80.608032,35.920395 80.608032,45.680302 
	C83.892693,45.680302 86.930702,45.680302 90.228493,45.680302 
	C90.228493,41.031948 90.189072,36.720531 90.237160,32.410088 
	C90.322479,24.762627 92.775452,22.560511 100.629166,23.476196 
	C100.629166,21.801193 100.629166,20.178459 100.624405,17.718174 
M104.372849,33.481861 
	C104.372849,37.578846 104.372849,41.675831 104.372849,45.719330 
	C108.019058,45.719330 110.949280,45.719330 113.871193,45.719330 
	C113.871193,35.696712 113.871193,25.976347 113.871193,16.281668 
	C110.599358,16.281668 107.687393,16.281668 104.372879,16.281668 
	C104.372879,21.878031 104.372879,27.183327 104.372849,33.481861 
M114.888458,6.570779 
	C114.307938,5.420324 113.885025,3.419503 113.117630,3.277277 
	C110.720284,2.832956 107.909447,2.437253 105.829376,3.338867 
	C104.706688,3.825497 103.733574,7.727009 104.497711,8.787593 
	C105.686150,10.437091 108.493263,11.881019 110.462097,11.705440 
	C112.054199,11.563459 113.421875,8.905056 114.888458,6.570779 
z"/>
<path fill="#FCFBFA" opacity="1.000000" stroke="none" 
	d="
M256.582306,19.422699 
	C256.582306,28.061596 256.582306,36.700493 256.582306,45.669880 
	C253.539871,45.669880 250.830780,45.669880 247.854446,45.669880 
	C247.854446,31.952139 247.854446,18.351122 247.854446,4.006350 
	C251.873718,4.006350 255.977493,3.780430 260.025574,4.155587 
	C261.120361,4.257048 262.503876,6.010149 262.975464,7.291913 
	C265.942596,15.356204 268.689819,23.501423 271.956787,32.907063 
	C274.990753,24.123846 277.848541,16.575140 280.156830,8.861997 
	C281.309387,5.010873 283.067474,3.368009 287.151398,3.925057 
	C289.895386,4.299331 292.731720,3.996300 295.796570,3.996300 
	C295.796570,18.017281 295.796570,31.613216 295.796570,45.607109 
	C292.853607,45.607109 289.799408,45.607109 286.067230,45.607109 
	C286.067230,36.773388 286.067230,27.837523 286.330811,18.190226 
	C286.718597,16.164021 286.842865,14.849246 286.967133,13.534472 
	C286.633301,13.487900 286.299469,13.441327 285.965668,13.394754 
	C285.658020,14.955178 285.350403,16.515604 285.042786,18.076031 
	C282.229675,26.423246 279.289520,34.730522 276.648804,43.131908 
	C274.927551,48.607998 270.691895,44.599236 267.616699,46.606052 
	C264.287201,37.256878 261.183044,28.540396 258.022766,19.116781 
	C257.538513,17.118067 257.110321,15.826489 256.682159,14.534911 
	C256.413361,14.603783 256.144592,14.672654 255.875793,14.741526 
	C256.111298,16.301916 256.346802,17.862309 256.582306,19.422699 
z"/>
<path fill="#FBF8F7" opacity="1.000000" stroke="none" 
	d="
M207.082321,21.132133 
	C207.081955,28.608694 207.032639,35.598614 207.090652,42.587643 
	C207.238724,60.428169 192.092606,63.219624 180.687988,59.865669 
	C178.893692,59.337986 178.267059,54.839867 177.672974,51.792656 
	C183.464966,53.342278 188.768951,56.191280 193.754608,52.044338 
	C195.748993,50.385460 196.554108,47.296780 197.999466,44.679852 
	C193.539322,45.597145 190.138870,46.407459 186.695328,46.938374 
	C185.636429,47.101639 184.401993,46.646435 183.346329,46.226879 
	C176.191803,43.383469 173.132095,32.764893 176.780029,23.603596 
	C179.805206,16.006231 186.919174,13.138555 194.728622,16.184151 
	C195.827728,16.612787 197.284866,16.080225 198.577103,16.065821 
	C201.210876,16.036459 203.845215,16.057032 206.794540,16.057032 
	C206.901627,17.764608 206.991943,19.204849 207.082321,21.132133 
M196.615219,25.499327 
	C192.547302,20.900785 187.689026,21.286476 186.158569,26.632818 
	C185.380203,29.351948 185.242111,32.666313 186.091675,35.299583 
	C186.691940,37.160145 189.422165,39.465286 191.228867,39.489017 
	C193.064102,39.513123 195.938766,37.320183 196.553146,35.491634 
	C197.493668,32.692467 196.886185,29.373163 196.615219,25.499327 
z"/>
<path fill="#FCFAF8" opacity="1.000000" stroke="none" 
	d="
M29.793919,35.177071 
	C29.793901,33.078587 29.793901,31.452810 29.793901,29.532240 
	C24.110577,29.532240 18.872854,29.532240 13.151971,29.532240 
	C13.151971,34.768661 13.151971,40.000156 13.151971,45.616714 
	C9.650661,45.616714 6.612967,45.616714 3.241006,45.616714 
	C3.241006,31.969666 3.241006,18.269873 3.241006,4.280927 
	C6.240404,4.280927 9.173610,4.280927 12.605810,4.280927 
	C12.605810,9.542967 12.605810,14.938859 12.605810,20.660599 
	C18.471338,20.660599 23.850359,20.660599 29.598888,20.660599 
	C29.598888,15.305465 29.598888,10.034271 29.598888,4.379452 
	C33.008743,4.379452 36.063042,4.379452 39.459824,4.379452 
	C39.459824,17.992029 39.459824,31.700960 39.459824,45.709232 
	C36.333466,45.709232 33.288185,45.709232 29.793934,45.709232 
	C29.793934,42.218853 29.793934,38.934311 29.793919,35.177071 
z"/>
<path fill="#FBF8F6" opacity="1.000000" stroke="none" 
	d="
M329.374695,38.620667 
	C331.080627,41.033779 332.568268,43.156658 334.055939,45.279533 
	C333.845032,45.780926 333.634155,46.282314 333.423279,46.783707 
	C329.548706,45.866798 324.929047,45.948479 322.000641,43.763485 
	C318.814728,41.386337 317.199646,36.903946 314.113342,32.120743 
	C314.113342,37.452232 314.113342,41.338203 314.113342,45.613773 
	C310.691254,45.613773 307.666870,45.613773 304.369446,45.613773 
	C304.369446,31.227179 304.369446,16.859800 304.369446,2.240258 
	C307.467102,2.240258 310.381653,2.240258 313.851746,2.240258 
	C313.851746,10.655062 313.851746,19.007444 313.851746,27.359829 
	C319.100677,21.313221 321.926117,12.181696 333.187469,16.816637 
	C330.007324,21.106857 326.724457,25.535662 323.300903,30.154222 
	C325.319519,32.972904 327.237976,35.651672 329.374695,38.620667 
z"/>
<path fill="#FAF7F6" opacity="1.000000" stroke="none" 
	d="
M57.696491,46.860092 
	C48.171192,43.484726 44.594303,36.883957 46.639229,27.165615 
	C48.381844,18.883974 54.551575,14.413788 63.425102,15.003662 
	C72.010284,15.574368 76.605865,22.928244 74.816330,33.879814 
	C71.807755,33.879814 68.696526,33.879818 65.585289,33.879818 
	C62.602551,33.879818 59.619812,33.879814 56.606899,33.879814 
	C57.398888,40.562340 61.855946,41.759575 72.384285,38.409309 
	C73.507248,45.220558 72.797424,46.276043 66.095329,46.897289 
	C63.457512,47.141800 60.777306,46.928997 57.696491,46.860092 
M65.153389,27.957359 
	C65.089355,26.264742 65.580894,24.209593 64.787125,22.993158 
	C64.141434,22.003664 61.467751,21.206579 60.552917,21.755817 
	C58.563446,22.950243 57.122799,25.058804 55.457813,26.793705 
	C55.762665,27.194740 56.067520,27.595776 56.372372,27.996811 
	C59.002247,27.996811 61.632126,27.996811 65.153389,27.957359 
z"/>
<path fill="#FBF8F6" opacity="1.000000" stroke="none" 
	d="
M239.154205,19.977962 
	C240.500839,24.481075 241.611435,28.684908 242.965302,33.809601 
	C235.421112,33.809601 229.222137,33.809601 222.921326,33.809601 
	C224.364792,40.678406 228.652161,41.785671 238.702316,38.480461 
	C240.199020,44.806942 239.645309,45.720028 233.651138,46.809826 
	C219.593445,49.365643 211.047882,41.639114 213.003235,28.091560 
	C213.885406,21.979342 217.079407,17.439924 223.080048,15.699709 
	C228.944595,13.998960 234.633255,14.409671 239.154205,19.977962 
M223.074554,27.729311 
	C226.292252,27.729311 229.509933,27.729311 232.727631,27.729311 
	C233.044067,27.261641 233.360519,26.793970 233.676956,26.326300 
	C232.003128,24.678680 230.539993,22.004635 228.609314,21.608349 
	C225.149963,20.898296 223.349762,23.626707 223.074554,27.729311 
z"/>
<path fill="#FBF9F7" opacity="1.000000" stroke="none" 
	d="
M151.543991,22.008986 
	C149.558136,22.616222 147.999786,23.166668 146.426056,23.722551 
	C145.096863,17.163084 145.146561,16.852018 151.339249,15.645659 
	C154.395279,15.050330 157.634537,14.880339 160.736267,15.148889 
	C166.142090,15.616930 169.838013,19.337635 170.161682,25.061522 
	C170.544922,31.839281 170.251724,38.655289 170.251724,46.133114 
	C166.888702,45.912910 163.787704,45.709866 160.686722,45.506821 
	C160.765564,45.173592 160.844406,44.840363 160.923248,44.507133 
	C158.163895,45.340694 155.445312,46.671547 152.636490,46.901806 
	C147.192230,47.348118 143.775391,44.524410 142.971466,39.694748 
	C142.068756,34.271591 144.434219,29.811333 149.540054,28.329914 
	C153.160202,27.279554 156.979691,26.916164 161.408569,26.120705 
	C159.839218,20.298641 155.625580,21.719212 151.543991,22.008986 
M157.969940,32.297737 
	C156.676651,32.599190 154.956406,32.495014 154.192307,33.299259 
	C153.105698,34.442947 152.096970,36.326405 152.261826,37.754501 
	C152.368134,38.675411 155.213577,40.318031 155.830002,39.951767 
	C157.854553,38.748829 159.511063,36.849609 161.036179,34.993748 
	C161.201096,34.793068 159.586731,33.130199 157.969940,32.297737 
z"/>
<path fill="#FDFBFA" opacity="1.000000" stroke="none" 
	d="
M133.403870,33.532059 
	C133.920731,39.669048 134.205734,39.920223 139.923401,39.421799 
	C139.371582,42.151096 142.255234,45.946987 137.037796,46.921371 
	C130.178497,48.202374 125.138084,45.676449 124.098839,40.136990 
	C123.583740,37.391376 123.689804,34.520695 123.612732,31.703920 
	C123.540466,29.062590 123.597267,26.417727 123.597267,23.413538 
	C122.028275,23.135588 120.654907,22.892294 119.056259,22.609089 
	C119.056259,20.607119 119.056259,18.671848 119.056259,16.405613 
	C120.329399,16.168566 121.717346,15.910140 123.539581,15.570853 
	C121.568680,7.574574 128.168228,8.702675 132.989578,6.794453 
	C133.255890,10.011726 133.490555,12.846807 133.734756,15.797090 
	C135.745621,15.923633 137.544250,16.036819 139.704208,16.172747 
	C139.704208,18.238106 139.704208,20.280827 139.704208,22.663658 
	C137.836334,22.840385 135.911591,23.022491 133.403198,23.259821 
	C133.403198,26.545805 133.403198,29.820732 133.403870,33.532059 
z"/>
<path fill="#F9F5F2" opacity="1.000000" stroke="none" 
	d="
M100.626785,18.136950 
	C100.629166,20.178459 100.629166,21.801193 100.629166,23.476196 
	C92.775452,22.560511 90.322479,24.762627 90.237160,32.410088 
	C90.189072,36.720531 90.228493,41.031948 90.228493,45.680302 
	C86.930702,45.680302 83.892693,45.680302 80.608032,45.680302 
	C80.608032,35.920395 80.608032,26.324381 80.608032,15.980349 
	C82.410126,15.980349 84.151283,16.021137 85.889877,15.971705 
	C89.321198,15.874145 92.735870,17.435953 96.232162,15.211093 
	C97.582108,14.352059 100.820755,13.974196 100.626785,18.136950 
z"/>
<path fill="#F9F5F3" opacity="1.000000" stroke="none" 
	d="
M104.372864,32.985245 
	C104.372879,27.183327 104.372879,21.878031 104.372879,16.281668 
	C107.687393,16.281668 110.599358,16.281668 113.871193,16.281668 
	C113.871193,25.976347 113.871193,35.696712 113.871193,45.719330 
	C110.949280,45.719330 108.019058,45.719330 104.372849,45.719330 
	C104.372849,41.675831 104.372849,37.578846 104.372864,32.985245 
z"/>
<path fill="#F8F4F1" opacity="1.000000" stroke="none" 
	d="
M114.888779,6.966844 
	C113.421875,8.905056 112.054199,11.563459 110.462097,11.705440 
	C108.493263,11.881019 105.686150,10.437091 104.497711,8.787593 
	C103.733574,7.727009 104.706688,3.825497 105.829376,3.338867 
	C107.909447,2.437253 110.720284,2.832956 113.117630,3.277277 
	C113.885025,3.419503 114.307938,5.420324 114.888779,6.966844 
z"/>
<path fill="#E6D5CB" opacity="1.000000" stroke="none" 
	d="
M285.310059,18.015797 
	C285.350403,16.515604 285.658020,14.955178 285.965668,13.394754 
	C286.299469,13.441327 286.633301,13.487900 286.967133,13.534472 
	C286.842865,14.849246 286.718597,16.164021 286.359863,17.719933 
	C285.942688,17.959234 285.760010,17.957399 285.310059,18.015797 
z"/>
<path fill="#CEAE9B" opacity="1.000000" stroke="none" 
	d="
M256.812653,19.413908 
	C256.346802,17.862309 256.111298,16.301916 255.875793,14.741526 
	C256.144592,14.672654 256.413361,14.603783 256.682159,14.534911 
	C257.110321,15.826489 257.538513,17.118067 257.934662,18.756832 
	C257.586700,19.120390 257.300140,19.220757 256.812653,19.413908 
z"/>
<path fill="#904D1C" opacity="1.000000" stroke="none" 
	d="
M196.775497,25.886982 
	C196.886185,29.373163 197.493668,32.692467 196.553146,35.491634 
	C195.938766,37.320183 193.064102,39.513123 191.228867,39.489017 
	C189.422165,39.465286 186.691940,37.160145 186.091675,35.299583 
	C185.242111,32.666313 185.380203,29.351948 186.158569,26.632818 
	C187.689026,21.286476 192.547302,20.900785 196.775497,25.886982 
z"/>
<path fill="#904D1D" opacity="1.000000" stroke="none" 
	d="
M64.707695,27.977085 
	C61.632126,27.996811 59.002247,27.996811 56.372372,27.996811 
	C56.067520,27.595776 55.762665,27.194740 55.457813,26.793705 
	C57.122799,25.058804 58.563446,22.950243 60.552917,21.755817 
	C61.467751,21.206579 64.141434,22.003664 64.787125,22.993158 
	C65.580894,24.209593 65.089355,26.264742 64.707695,27.977085 
z"/>
<path fill="#925021" opacity="1.000000" stroke="none" 
	d="
M222.909515,27.329815 
	C223.349762,23.626707 225.149963,20.898296 228.609314,21.608349 
	C230.539993,22.004635 232.003128,24.678680 233.676956,26.326300 
	C233.360519,26.793970 233.044067,27.261641 232.727631,27.729311 
	C229.509933,27.729311 226.292252,27.729311 222.909515,27.329815 
z"/>
<path fill="#925021" opacity="1.000000" stroke="none" 
	d="
M158.383820,32.221657 
	C159.586731,33.130199 161.201096,34.793068 161.036179,34.993748 
	C159.511063,36.849609 157.854553,38.748829 155.830002,39.951767 
	C155.213577,40.318031 152.368134,38.675411 152.261826,37.754501 
	C152.096970,36.326405 153.105698,34.442947 154.192307,33.299259 
	C154.956406,32.495014 156.676651,32.599190 158.383820,32.221657 
z"/>
</svg>